<svg width="256" height="256" viewBox="0 0 256 256" xmlns="http://www.w3.org/2000/svg" shape-rendering="crispEdges">
  <defs>
    <linearGradient id="ice" x1="0" y1="0" x2="0" y2="1">
      <stop offset="0" stop-color="#dff1ff"/>
      <stop offset="1" stop-color="#7cc4ff"/>
    </linearGradient>
  </defs>
  <rect x="0" y="0" width="256" height="256" fill="url(#ice)"/>
  <rect x="120" y="8" width="8" height="8" fill="#ffffff"/>
  <rect x="88" y="16" width="8" height="8" fill="#ffffff"/>
  <rect x="112" y="16" width="8" height="8" fill="#ffffff"/>
  <rect x="120" y="16" width="8" height="8" fill="#ffffff"/>
  <rect x="128" y="16" width="8" height="8" fill="#ffffff"/>
  <rect x="152" y="16" width="8" height="8" fill="#ffffff"/>
  <rect x="96" y="24" width="8" height="8" fill="#ffffff"/>
  <rect x="112" y="24" width="8" height="8" fill="#ffffff"/>
  <rect x="120" y="24" width="8" height="8" fill="#ffffff"/>
  <rect x="128" y="24" width="8" height="8" fill="#ffffff"/>
  <rect x="144" y="24" width="8" height="8" fill="#ffffff"/>
  <rect x="104" y="32" width="8" height="8" fill="#ffffff"/>
  <rect x="112" y="32" width="8" height="8" fill="#ffffff"/>
  <rect x="120" y="32" width="8" height="8" fill="#ffffff"/>
  <rect x="128" y="32" width="8" height="8" fill="#ffffff"/>
  <rect x="136" y="32" width="8" height="8" fill="#ffffff"/>
  <rect x="88" y="40" width="8" height="8" fill="#ffffff"/>
  <rect x="96" y="40" width="8" height="8" fill="#ffffff"/>
  <rect x="104" y="40" width="8" height="8" fill="#ffffff"/>
  <rect x="112" y="40" width="8" height="8" fill="#ffffff"/>
  <rect x="120" y="40" width="8" height="8" fill="#ffffff"/>
  <rect x="128" y="40" width="8" height="8" fill="#ffffff"/>
  <rect x="136" y="40" width="8" height="8" fill="#ffffff"/>
  <rect x="144" y="40" width="8" height="8" fill="#ffffff"/>
  <rect x="152" y="40" width="8" height="8" fill="#ffffff"/>
  <rect x="104" y="48" width="8" height="8" fill="#ffffff"/>
  <rect x="112" y="48" width="8" height="8" fill="#ffffff"/>
  <rect x="120" y="48" width="8" height="8" fill="#ffffff"/>
  <rect x="128" y="48" width="8" height="8" fill="#ffffff"/>
  <rect x="136" y="48" width="8" height="8" fill="#ffffff"/>
  <rect x="96" y="56" width="8" height="8" fill="#ffffff"/>
  <rect x="112" y="56" width="8" height="8" fill="#ffffff"/>
  <rect x="120" y="56" width="8" height="8" fill="#ffffff"/>
  <rect x="128" y="56" width="8" height="8" fill="#ffffff"/>
  <rect x="144" y="56" width="8" height="8" fill="#ffffff"/>
  <rect x="88" y="64" width="8" height="8" fill="#ffffff"/>
  <rect x="112" y="64" width="8" height="8" fill="#ffffff"/>
  <rect x="120" y="64" width="8" height="8" fill="#ffffff"/>
  <rect x="128" y="64" width="8" height="8" fill="#ffffff"/>
  <rect x="152" y="64" width="8" height="8" fill="#ffffff"/>
  <rect x="120" y="72" width="8" height="8" fill="#ffffff"/>
  <rect x="40" y="80" width="48" height="40" fill="#14110c"/>
  <rect x="48" y="88" width="32" height="24" fill="#f6fbff"/>
  <rect x="56" y="96" width="16" height="16" fill="#a7d4ff"/>
  <rect x="168" y="80" width="48" height="40" fill="#14110c"/>
  <rect x="176" y="88" width="32" height="24" fill="#f6fbff"/>
  <rect x="184" y="96" width="16" height="16" fill="#a7d4ff"/>
  <rect x="24" y="112" width="208" height="128" fill="#14110c"/>
  <rect x="32" y="120" width="192" height="112" fill="#f6fbff"/>
  <rect x="32" y="208" width="192" height="24" fill="#d2e6f5"/>
  <rect x="72" y="144" width="24" height="24" fill="#14110c"/>
  <rect x="160" y="144" width="24" height="24" fill="#14110c"/>
  <rect x="80" y="144" width="8" height="8" fill="#f6fbff"/>
  <rect x="168" y="144" width="8" height="8" fill="#f6fbff"/>
  <rect x="96" y="176" width="64" height="48" fill="#e7f3fd"/>
  <rect x="112" y="176" width="32" height="24" fill="#14110c"/>
  <rect x="120" y="200" width="16" height="16" fill="#14110c"/>
  <rect x="104" y="208" width="16" height="8" fill="#14110c"/>
  <rect x="136" y="208" width="16" height="8" fill="#14110c"/>
</svg>
