<svg width="256" height="256" viewBox="0 0 256 256" xmlns="http://www.w3.org/2000/svg" shape-rendering="crispEdges">
  <defs>
    <linearGradient id="ice" x1="0" y1="0" x2="0" y2="1">
      <stop offset="0" stop-color="#dff1ff"/>
      <stop offset="1" stop-color="#7cc4ff"/>
    </linearGradient>
  </defs>
  <rect x="0" y="0" width="256" height="256" fill="url(#ice)"/>
  <rect x="16" y="64" width="32" height="32" fill="#14110c"/>
  <rect x="24" y="72" width="16" height="16" fill="#f6fbff"/>
  <rect x="80" y="64" width="32" height="32" fill="#14110c"/>
  <rect x="88" y="72" width="16" height="16" fill="#f6fbff"/>
  <rect x="16" y="88" width="96" height="88" fill="#14110c"/>
  <rect x="24" y="96" width="80" height="72" fill="#f6fbff"/>
  <rect x="24" y="152" width="80" height="16" fill="#d2e6f5"/>
  <rect x="32" y="112" width="16" height="16" fill="#14110c"/>
  <rect x="80" y="112" width="16" height="16" fill="#14110c"/>
  <rect x="32" y="112" width="8" height="8" fill="#f6fbff"/>
  <rect x="80" y="112" width="8" height="8" fill="#f6fbff"/>
  <rect x="40" y="136" width="48" height="32" fill="#e7f3fd"/>
  <rect x="56" y="136" width="16" height="16" fill="#14110c"/>
  <rect x="56" y="152" width="16" height="8" fill="#14110c"/>
  <rect x="48" y="160" width="8" height="8" fill="#14110c"/>
  <rect x="72" y="160" width="8" height="8" fill="#14110c"/>
  <rect x="184" y="120" width="8" height="8" fill="#ffffff"/>
  <rect x="184" y="128" width="8" height="8" fill="#ffffff"/>
  <rect x="184" y="112" width="8" height="8" fill="#ffffff"/>
  <rect x="192" y="120" width="8" height="8" fill="#ffffff"/>
  <rect x="176" y="120" width="8" height="8" fill="#ffffff"/>
  <rect x="184" y="136" width="8" height="8" fill="#ffffff"/>
  <rect x="184" y="104" width="8" height="8" fill="#ffffff"/>
  <rect x="200" y="120" width="8" height="8" fill="#ffffff"/>
  <rect x="168" y="120" width="8" height="8" fill="#ffffff"/>
  <rect x="184" y="144" width="8" height="8" fill="#ffffff"/>
  <rect x="184" y="96" width="8" height="8" fill="#ffffff"/>
  <rect x="208" y="120" width="8" height="8" fill="#ffffff"/>
  <rect x="160" y="120" width="8" height="8" fill="#ffffff"/>
  <rect x="184" y="152" width="8" height="8" fill="#ffffff"/>
  <rect x="184" y="88" width="8" height="8" fill="#ffffff"/>
  <rect x="216" y="120" width="8" height="8" fill="#ffffff"/>
  <rect x="152" y="120" width="8" height="8" fill="#ffffff"/>
  <rect x="184" y="160" width="8" height="8" fill="#ffffff"/>
  <rect x="184" y="80" width="8" height="8" fill="#ffffff"/>
  <rect x="224" y="120" width="8" height="8" fill="#ffffff"/>
  <rect x="144" y="120" width="8" height="8" fill="#ffffff"/>
  <rect x="184" y="168" width="8" height="8" fill="#ffffff"/>
  <rect x="184" y="72" width="8" height="8" fill="#ffffff"/>
  <rect x="232" y="120" width="8" height="8" fill="#ffffff"/>
  <rect x="136" y="120" width="8" height="8" fill="#ffffff"/>
  <rect x="184" y="176" width="8" height="8" fill="#ffffff"/>
  <rect x="184" y="64" width="8" height="8" fill="#ffffff"/>
  <rect x="240" y="120" width="8" height="8" fill="#ffffff"/>
  <rect x="128" y="120" width="8" height="8" fill="#ffffff"/>
  <rect x="192" y="144" width="8" height="8" fill="#ffffff"/>
  <rect x="176" y="144" width="8" height="8" fill="#ffffff"/>
  <rect x="192" y="96" width="8" height="8" fill="#ffffff"/>
  <rect x="176" y="96" width="8" height="8" fill="#ffffff"/>
  <rect x="208" y="128" width="8" height="8" fill="#ffffff"/>
  <rect x="160" y="128" width="8" height="8" fill="#ffffff"/>
  <rect x="208" y="112" width="8" height="8" fill="#ffffff"/>
  <rect x="160" y="112" width="8" height="8" fill="#ffffff"/>
  <rect x="192" y="168" width="8" height="8" fill="#ffffff"/>
  <rect x="176" y="168" width="8" height="8" fill="#ffffff"/>
  <rect x="192" y="72" width="8" height="8" fill="#ffffff"/>
  <rect x="176" y="72" width="8" height="8" fill="#ffffff"/>
  <rect x="232" y="128" width="8" height="8" fill="#ffffff"/>
  <rect x="136" y="128" width="8" height="8" fill="#ffffff"/>
  <rect x="232" y="112" width="8" height="8" fill="#ffffff"/>
  <rect x="136" y="112" width="8" height="8" fill="#ffffff"/>
  <rect x="200" y="160" width="8" height="8" fill="#ffffff"/>
  <rect x="168" y="160" width="8" height="8" fill="#ffffff"/>
  <rect x="200" y="80" width="8" height="8" fill="#ffffff"/>
  <rect x="168" y="80" width="8" height="8" fill="#ffffff"/>
  <rect x="224" y="136" width="8" height="8" fill="#ffffff"/>
  <rect x="144" y="136" width="8" height="8" fill="#ffffff"/>
  <rect x="224" y="104" width="8" height="8" fill="#ffffff"/>
  <rect x="144" y="104" width="8" height="8" fill="#ffffff"/>
  <rect x="192" y="128" width="8" height="8" fill="#ffffff"/>
  <rect x="176" y="128" width="8" height="8" fill="#ffffff"/>
  <rect x="192" y="112" width="8" height="8" fill="#ffffff"/>
  <rect x="176" y="112" width="8" height="8" fill="#ffffff"/>
  <rect x="200" y="136" width="8" height="8" fill="#ffffff"/>
  <rect x="168" y="136" width="8" height="8" fill="#ffffff"/>
  <rect x="200" y="104" width="8" height="8" fill="#ffffff"/>
  <rect x="168" y="104" width="8" height="8" fill="#ffffff"/>
  <rect x="208" y="144" width="8" height="8" fill="#ffffff"/>
  <rect x="160" y="144" width="8" height="8" fill="#ffffff"/>
  <rect x="208" y="96" width="8" height="8" fill="#ffffff"/>
  <rect x="160" y="96" width="8" height="8" fill="#ffffff"/>
  <rect x="216" y="152" width="8" height="8" fill="#ffffff"/>
  <rect x="152" y="152" width="8" height="8" fill="#ffffff"/>
  <rect x="216" y="88" width="8" height="8" fill="#ffffff"/>
  <rect x="152" y="88" width="8" height="8" fill="#ffffff"/>
  <rect x="208" y="136" width="8" height="8" fill="#ffffff"/>
  <rect x="160" y="136" width="8" height="8" fill="#ffffff"/>
  <rect x="208" y="104" width="8" height="8" fill="#ffffff"/>
  <rect x="160" y="104" width="8" height="8" fill="#ffffff"/>
  <rect x="200" y="144" width="8" height="8" fill="#ffffff"/>
  <rect x="168" y="144" width="8" height="8" fill="#ffffff"/>
  <rect x="200" y="96" width="8" height="8" fill="#ffffff"/>
  <rect x="168" y="96" width="8" height="8" fill="#ffffff"/>
</svg>
